<?xml version="1.0" encoding="UTF-8"?>
<svg id="Layer_1" xmlns="http://www.w3.org/2000/svg" version="1.1" viewBox="0 0 1080 1080">
  <!-- Generator: Adobe Illustrator 30.2.1, SVG Export Plug-In . SVG Version: 2.1.1 Build 1)  -->
  <defs>
    <style>
      .st0 {
        fill: #004cca;
      }

      .st1 {
        fill: #fff;
      }
    </style>
  </defs>
  <rect class="st1" width="1080" height="1080" rx="86.04" ry="86.04"/>
  <g>
    <path d="M123.03,858.39V212.87h331.46c42.45,0,77.95,6.96,106.45,20.94,28.47,13.95,50.01,32.83,64.53,56.69,14.55,23.85,21.83,50.58,21.83,80.26,0,38.97-10.19,69.64-30.53,92.04-20.37,22.4-43.63,37.37-69.82,44.9v7.88c16.89,3.48,35.35,11.04,55.41,22.68,20.06,11.64,37.2,28.29,51.47,50.16,14.23,21.79,21.37,50.12,21.37,85.05,0,30.81-7.28,60.34-21.79,88.53-14.55,28.26-37.37,51.32-68.47,69.36-31.13,18.03-72.27,27.05-123.45,27.05H123.03ZM419.6,351.56h-129.1v112.56h129.1c22.11,0,38.69-5.11,49.73-15.26,11.04-10.19,16.58-23.99,16.58-41.46s-5.54-30.38-16.58-40.57c-11.04-10.16-27.62-15.26-49.73-15.26h0ZM431.81,588.84h-141.31v130.83h141.31c25.59,0,44.51-6.11,56.72-18.31,12.21-12.21,18.31-28.19,18.31-47.99s-6.11-35.43-18.31-47.07c-12.21-11.64-31.13-17.46-56.72-17.46h0Z"/>
    <path class="st0" d="M870.61,867.13c-25.02,0-45.65-8.59-61.94-25.77-16.29-17.1-24.42-37.34-24.42-60.63s8.13-44.15,24.42-61.05c16.29-16.82,36.91-25.27,61.94-25.27s45.65,8.45,61.94,25.27c16.25,16.89,24.42,37.27,24.42,61.05s-8.17,43.52-24.42,60.63c-16.29,17.18-36.95,25.77-61.94,25.77h0Z"/>
  </g>
</svg>